# xmcd
#
# Track frame offsets: 
#        183
#        22758
#        43908
#        74583
#        87108
#        106458
#        124983
#        159258
#        188508
#        216033
#        243183
#        269433
#
# Disc length: 3982 seconds
#
# Revision: 3
# Processed by: cddbd v1.5.2PL0 Copyright (c) Steve Scherf et al.
# Submitted via: ExactAudioCopy v0.99pb5
#
DISCID=9e0f8c0c
DTITLE=Various Artist - The JAZZ Sampler
DYEAR=1988
DGENRE=Jazz
TTITLE0=Kenny Barron - Voyage
TTITLE1=Ray Anderson - Mona Lisa
TTITLE2=Abdullah Ibrahim - Dollar Brand - Mindif
TTITLE3=Michele Rosewoman - Vamp For Ochun
TTITLE4=John Stubblefield - Mw  Malad O
TTITLE5=Franco Ambrosetti - Falling In Love Again
TTITLE6=Chet Baker - 3 and 1 =5
TTITLE7=Mark Helias - Greetings From L.C.
TTITLE8=Nels Cline - Bandoneon
TTITLE9=Conexion Latina - Rumba De Las Cajas
TTITLE10=Barbara Dennerlein - Bad And Blue
TTITLE11=Marty Ehrlich - Willie Whipporwill's Back Slidin' Heart Throb
TTITLE11=Two Step
EXTD=YEAR: 1988
EXTT0=
EXTT1=
EXTT2=
EXTT3=
EXTT4=
EXTT5=
EXTT6=
EXTT7=
EXTT8=
EXTT9=
EXTT10=
EXTT11=
PLAYORDER=
